<svg xmlns="http://www.w3.org/2000/svg" xmlns:xlink="http://www.w3.org/1999/xlink" fill="#374151" version="1.1" x="0px" y="0px" viewBox="0 22.833 56.5 75" enable-background="new 0 19.833 56.5 80.167" xml:space="preserve"><path d="M50.278,90.695c-10.444-1.159-18.094-5.507-22.739-12.922c-6.677-10.664-5.336-24.939-1.855-34.743  c0.13-0.366-0.061-0.768-0.426-0.897c-0.358-0.128-0.767,0.062-0.896,0.427c-3.593,10.114-4.956,24.871,1.986,35.958  c4.883,7.798,12.883,12.366,23.776,13.574c0.025,0.004,0.052,0.005,0.078,0.005c0.353,0,0.657-0.267,0.697-0.627  C50.942,91.085,50.665,90.738,50.278,90.695z"/><path d="M25.637,83.464c-0.49-0.047-0.994-0.072-1.497-0.072c-4.525,0-8.564,1.935-10.595,3.108c1.97,1.729,6.171,4.851,11.26,5.354  c0.657,0.064,1.298,0.098,1.909,0.098c5.529,0,7.534-2.645,7.608-3.393c0.045-0.455-0.325-1.51-1.53-2.54  C31.679,85.066,29.533,83.851,25.637,83.464z"/><path d="M30.881,80.186c0.044,0.009,0.089,0.011,0.139,0.011c1.072,0,4.383-1.535,5.496-8.354c0.83-5.07-1.106-9.927-2.263-12.26  c-1.851,1.861-5.236,5.862-6.056,10.896C27.074,77.344,29.965,80.036,30.881,80.186z"/><path d="M21.163,69.707c0.312-0.337,0.656-1.398,0.32-2.947c-0.31-1.433-1.282-3.697-4.153-6.361  c-3.752-3.486-8.879-4.566-11.463-4.897c0.525,2.571,1.986,7.601,5.726,11.069c3.44,3.196,6.194,3.674,7.531,3.674  C20.38,70.244,21.033,69.847,21.163,69.707z"/><path d="M25.694,48.669c-2.909,4.467-1.824,7.302-1.257,7.706c0.077,0.051,0.316,0.139,0.704,0.139c0.694,0,3.166-0.318,5.83-4.406  c2.098-3.221,2.352-7.118,2.298-9.289C31.245,43.657,27.775,45.473,25.694,48.669z"/><path d="M20.599,49.285c0.191,0,0.305-0.031,0.332-0.042c0.512-0.279,1.643-2.606-0.638-6.815c-1.58-2.911-4.397-4.744-6.142-5.658  c-0.19,1.966-0.189,5.306,1.396,8.229C17.264,48.162,19.342,49.285,20.599,49.285z"/><path d="M25.619,41.592h0.002c0.007,0,0.034,0.003,0.076,0.003c0.678,0,2.698-0.874,3.888-4.867c0.85-2.86,0.259-5.836-0.273-7.604  c-1.418,1.189-3.522,3.348-4.377,6.225C23.666,39.612,25.255,41.419,25.619,41.592z"/></svg>